<mxfile host="Electron" modified="2024-07-10T14:53:48.445Z" agent="Mozilla/5.0 (Windows NT 10.0; Win64; x64) AppleWebKit/537.36 (KHTML, like Gecko) draw.io/24.5.3 Chrome/124.0.6367.207 Electron/30.0.6 Safari/537.36" etag="S31r-kPWXWnZ_Uks2EW6" version="24.5.3" type="device">
  <diagram id="C5RBs43oDa-KdzZeNtuy" name="Page-1">
    <mxGraphModel dx="1861" dy="1774" grid="1" gridSize="10" guides="1" tooltips="1" connect="1" arrows="1" fold="1" page="1" pageScale="1" pageWidth="827" pageHeight="1169" math="0" shadow="0">
      <root>
        <mxCell id="WIyWlLk6GJQsqaUBKTNV-0" />
        <mxCell id="WIyWlLk6GJQsqaUBKTNV-1" parent="WIyWlLk6GJQsqaUBKTNV-0" />
        <mxCell id="g5iWzGjabt4fdFUzFIoq-0" value="Vehicle&lt;hr&gt;&lt;div&gt;int id;&lt;br&gt;&lt;div&gt;int vehicleNumber;&lt;/div&gt;&lt;div&gt;enum vehicletype;&lt;/div&gt;&lt;/div&gt;&lt;div&gt;enum status;&lt;/div&gt;&lt;div&gt;int chassisnumber;&lt;/div&gt;&lt;div&gt;int rentalCost;&lt;/div&gt;&lt;div&gt;etc&lt;/div&gt;" style="whiteSpace=wrap;html=1;aspect=fixed;" parent="WIyWlLk6GJQsqaUBKTNV-1" vertex="1">
          <mxGeometry x="500" y="154" width="140" height="140" as="geometry" />
        </mxCell>
        <mxCell id="g5iWzGjabt4fdFUzFIoq-1" value="Enum VehicleType&lt;hr&gt;CAR&lt;div&gt;BIKE&lt;/div&gt;&lt;div&gt;etc&lt;/div&gt;" style="whiteSpace=wrap;html=1;aspect=fixed;" parent="WIyWlLk6GJQsqaUBKTNV-1" vertex="1">
          <mxGeometry x="710" y="154" width="90" height="90" as="geometry" />
        </mxCell>
        <mxCell id="g5iWzGjabt4fdFUzFIoq-4" value="Car Rental System" style="text;html=1;align=center;verticalAlign=middle;resizable=0;points=[];autosize=1;strokeColor=none;fillColor=none;" parent="WIyWlLk6GJQsqaUBKTNV-1" vertex="1">
          <mxGeometry x="250" y="-80" width="120" height="30" as="geometry" />
        </mxCell>
        <mxCell id="g5iWzGjabt4fdFUzFIoq-5" value="Enum Status&lt;hr&gt;ACTIVE&lt;div&gt;INACTIVE&lt;/div&gt;" style="whiteSpace=wrap;html=1;aspect=fixed;" parent="WIyWlLk6GJQsqaUBKTNV-1" vertex="1">
          <mxGeometry x="710" y="254" width="90" height="90" as="geometry" />
        </mxCell>
        <mxCell id="g5iWzGjabt4fdFUzFIoq-6" style="edgeStyle=orthogonalEdgeStyle;rounded=0;orthogonalLoop=1;jettySize=auto;html=1;exitX=1;exitY=0.25;exitDx=0;exitDy=0;entryX=0.031;entryY=0.38;entryDx=0;entryDy=0;entryPerimeter=0;" parent="WIyWlLk6GJQsqaUBKTNV-1" source="g5iWzGjabt4fdFUzFIoq-0" target="g5iWzGjabt4fdFUzFIoq-1" edge="1">
          <mxGeometry relative="1" as="geometry" />
        </mxCell>
        <mxCell id="g5iWzGjabt4fdFUzFIoq-7" style="edgeStyle=orthogonalEdgeStyle;rounded=0;orthogonalLoop=1;jettySize=auto;html=1;exitX=1;exitY=0.75;exitDx=0;exitDy=0;entryX=0.022;entryY=0.104;entryDx=0;entryDy=0;entryPerimeter=0;" parent="WIyWlLk6GJQsqaUBKTNV-1" source="g5iWzGjabt4fdFUzFIoq-0" target="g5iWzGjabt4fdFUzFIoq-5" edge="1">
          <mxGeometry relative="1" as="geometry" />
        </mxCell>
        <mxCell id="g5iWzGjabt4fdFUzFIoq-8" value="CAR" style="rounded=0;whiteSpace=wrap;html=1;" parent="WIyWlLk6GJQsqaUBKTNV-1" vertex="1">
          <mxGeometry x="520" y="360" width="100" height="40" as="geometry" />
        </mxCell>
        <mxCell id="g5iWzGjabt4fdFUzFIoq-9" value="BIKE" style="rounded=0;whiteSpace=wrap;html=1;" parent="WIyWlLk6GJQsqaUBKTNV-1" vertex="1">
          <mxGeometry x="630" y="360" width="90" height="40" as="geometry" />
        </mxCell>
        <mxCell id="g5iWzGjabt4fdFUzFIoq-11" value="" style="endArrow=block;dashed=1;endFill=0;endSize=12;html=1;rounded=0;entryX=0.25;entryY=1;entryDx=0;entryDy=0;exitX=0.5;exitY=0;exitDx=0;exitDy=0;" parent="WIyWlLk6GJQsqaUBKTNV-1" source="g5iWzGjabt4fdFUzFIoq-8" target="g5iWzGjabt4fdFUzFIoq-0" edge="1">
          <mxGeometry width="160" relative="1" as="geometry">
            <mxPoint x="555" y="344" as="sourcePoint" />
            <mxPoint x="430" y="444" as="targetPoint" />
          </mxGeometry>
        </mxCell>
        <mxCell id="g5iWzGjabt4fdFUzFIoq-12" value="" style="endArrow=block;dashed=1;endFill=0;endSize=12;html=1;rounded=0;entryX=0.75;entryY=1;entryDx=0;entryDy=0;exitX=0.5;exitY=0;exitDx=0;exitDy=0;" parent="WIyWlLk6GJQsqaUBKTNV-1" source="g5iWzGjabt4fdFUzFIoq-9" target="g5iWzGjabt4fdFUzFIoq-0" edge="1">
          <mxGeometry width="160" relative="1" as="geometry">
            <mxPoint x="612.5" y="344" as="sourcePoint" />
            <mxPoint x="545" y="304" as="targetPoint" />
          </mxGeometry>
        </mxCell>
        <mxCell id="g5iWzGjabt4fdFUzFIoq-13" value="VehicleInventoryManagement" style="swimlane;fontStyle=0;childLayout=stackLayout;horizontal=1;startSize=26;fillColor=none;horizontalStack=0;resizeParent=1;resizeParentMax=0;resizeLast=0;collapsible=1;marginBottom=0;whiteSpace=wrap;html=1;" parent="WIyWlLk6GJQsqaUBKTNV-1" vertex="1">
          <mxGeometry x="240" y="154" width="160" height="100" as="geometry" />
        </mxCell>
        <mxCell id="g5iWzGjabt4fdFUzFIoq-14" value="List&amp;lt;Vehicle&amp;gt; list;&lt;div&gt;&lt;br&gt;&lt;/div&gt;&lt;div&gt;//supports all CRUD operations&lt;/div&gt;" style="text;strokeColor=none;fillColor=none;align=left;verticalAlign=top;spacingLeft=4;spacingRight=4;overflow=hidden;rotatable=0;points=[[0,0.5],[1,0.5]];portConstraint=eastwest;whiteSpace=wrap;html=1;" parent="g5iWzGjabt4fdFUzFIoq-13" vertex="1">
          <mxGeometry y="26" width="160" height="74" as="geometry" />
        </mxCell>
        <mxCell id="g5iWzGjabt4fdFUzFIoq-17" value="CarInventoryManager" style="html=1;whiteSpace=wrap;" parent="WIyWlLk6GJQsqaUBKTNV-1" vertex="1">
          <mxGeometry x="230" y="294" width="120" height="50" as="geometry" />
        </mxCell>
        <mxCell id="g5iWzGjabt4fdFUzFIoq-18" value="BikeInventoryManager" style="html=1;whiteSpace=wrap;" parent="WIyWlLk6GJQsqaUBKTNV-1" vertex="1">
          <mxGeometry x="360" y="294" width="120" height="50" as="geometry" />
        </mxCell>
        <mxCell id="g5iWzGjabt4fdFUzFIoq-20" value="" style="endArrow=block;dashed=1;endFill=0;endSize=12;html=1;rounded=0;entryX=0.38;entryY=1.005;entryDx=0;entryDy=0;exitX=0.5;exitY=0;exitDx=0;exitDy=0;entryPerimeter=0;" parent="WIyWlLk6GJQsqaUBKTNV-1" source="g5iWzGjabt4fdFUzFIoq-17" target="g5iWzGjabt4fdFUzFIoq-14" edge="1">
          <mxGeometry width="160" relative="1" as="geometry">
            <mxPoint x="565" y="354" as="sourcePoint" />
            <mxPoint x="545" y="304" as="targetPoint" />
          </mxGeometry>
        </mxCell>
        <mxCell id="g5iWzGjabt4fdFUzFIoq-21" value="" style="endArrow=block;dashed=1;endFill=0;endSize=12;html=1;rounded=0;entryX=0.795;entryY=1.016;entryDx=0;entryDy=0;exitX=0.75;exitY=0;exitDx=0;exitDy=0;entryPerimeter=0;" parent="WIyWlLk6GJQsqaUBKTNV-1" source="g5iWzGjabt4fdFUzFIoq-18" edge="1">
          <mxGeometry width="160" relative="1" as="geometry">
            <mxPoint x="547.8" y="362.82" as="sourcePoint" />
            <mxPoint x="340.00000000000006" y="254.00399999999996" as="targetPoint" />
          </mxGeometry>
        </mxCell>
        <mxCell id="g5iWzGjabt4fdFUzFIoq-27" style="edgeStyle=orthogonalEdgeStyle;rounded=0;orthogonalLoop=1;jettySize=auto;html=1;exitX=1;exitY=0.5;exitDx=0;exitDy=0;entryX=0;entryY=0.449;entryDx=0;entryDy=0;entryPerimeter=0;" parent="WIyWlLk6GJQsqaUBKTNV-1" source="g5iWzGjabt4fdFUzFIoq-14" target="g5iWzGjabt4fdFUzFIoq-0" edge="1">
          <mxGeometry relative="1" as="geometry" />
        </mxCell>
        <mxCell id="g5iWzGjabt4fdFUzFIoq-30" value="Store" style="swimlane;fontStyle=0;childLayout=stackLayout;horizontal=1;startSize=26;fillColor=none;horizontalStack=0;resizeParent=1;resizeParentMax=0;resizeLast=0;collapsible=1;marginBottom=0;whiteSpace=wrap;html=1;" parent="WIyWlLk6GJQsqaUBKTNV-1" vertex="1">
          <mxGeometry y="150" width="200" height="136" as="geometry" />
        </mxCell>
        <mxCell id="g5iWzGjabt4fdFUzFIoq-31" value="int StoreId;" style="text;strokeColor=none;fillColor=none;align=left;verticalAlign=top;spacingLeft=4;spacingRight=4;overflow=hidden;rotatable=0;points=[[0,0.5],[1,0.5]];portConstraint=eastwest;whiteSpace=wrap;html=1;" parent="g5iWzGjabt4fdFUzFIoq-30" vertex="1">
          <mxGeometry y="26" width="200" height="26" as="geometry" />
        </mxCell>
        <mxCell id="g5iWzGjabt4fdFUzFIoq-32" value="VehicleInventoryManagement obj;" style="text;strokeColor=none;fillColor=none;align=left;verticalAlign=top;spacingLeft=4;spacingRight=4;overflow=hidden;rotatable=0;points=[[0,0.5],[1,0.5]];portConstraint=eastwest;whiteSpace=wrap;html=1;" parent="g5iWzGjabt4fdFUzFIoq-30" vertex="1">
          <mxGeometry y="52" width="200" height="26" as="geometry" />
        </mxCell>
        <mxCell id="g5iWzGjabt4fdFUzFIoq-33" value="Location obj;&lt;div&gt;&lt;br&gt;&lt;/div&gt;&lt;div&gt;List&amp;lt;Reservation&amp;gt; resObj;&lt;/div&gt;" style="text;strokeColor=none;fillColor=none;align=left;verticalAlign=top;spacingLeft=4;spacingRight=4;overflow=hidden;rotatable=0;points=[[0,0.5],[1,0.5]];portConstraint=eastwest;whiteSpace=wrap;html=1;" parent="g5iWzGjabt4fdFUzFIoq-30" vertex="1">
          <mxGeometry y="78" width="200" height="58" as="geometry" />
        </mxCell>
        <mxCell id="g5iWzGjabt4fdFUzFIoq-34" style="edgeStyle=orthogonalEdgeStyle;rounded=0;orthogonalLoop=1;jettySize=auto;html=1;exitX=1;exitY=0.5;exitDx=0;exitDy=0;entryX=0;entryY=0.5;entryDx=0;entryDy=0;" parent="WIyWlLk6GJQsqaUBKTNV-1" source="g5iWzGjabt4fdFUzFIoq-32" target="g5iWzGjabt4fdFUzFIoq-14" edge="1">
          <mxGeometry relative="1" as="geometry">
            <Array as="points">
              <mxPoint x="200" y="217" />
            </Array>
          </mxGeometry>
        </mxCell>
        <mxCell id="g5iWzGjabt4fdFUzFIoq-35" value="1:n" style="text;html=1;align=center;verticalAlign=middle;resizable=0;points=[];autosize=1;strokeColor=none;fillColor=none;" parent="WIyWlLk6GJQsqaUBKTNV-1" vertex="1">
          <mxGeometry x="430" y="182" width="40" height="30" as="geometry" />
        </mxCell>
        <mxCell id="g5iWzGjabt4fdFUzFIoq-36" value="Location" style="swimlane;fontStyle=0;childLayout=stackLayout;horizontal=1;startSize=26;fillColor=none;horizontalStack=0;resizeParent=1;resizeParentMax=0;resizeLast=0;collapsible=1;marginBottom=0;whiteSpace=wrap;html=1;" parent="WIyWlLk6GJQsqaUBKTNV-1" vertex="1">
          <mxGeometry x="20" y="10" width="140" height="104" as="geometry" />
        </mxCell>
        <mxCell id="g5iWzGjabt4fdFUzFIoq-37" value="String address;" style="text;strokeColor=none;fillColor=none;align=left;verticalAlign=top;spacingLeft=4;spacingRight=4;overflow=hidden;rotatable=0;points=[[0,0.5],[1,0.5]];portConstraint=eastwest;whiteSpace=wrap;html=1;" parent="g5iWzGjabt4fdFUzFIoq-36" vertex="1">
          <mxGeometry y="26" width="140" height="26" as="geometry" />
        </mxCell>
        <mxCell id="g5iWzGjabt4fdFUzFIoq-38" value="String city;" style="text;strokeColor=none;fillColor=none;align=left;verticalAlign=top;spacingLeft=4;spacingRight=4;overflow=hidden;rotatable=0;points=[[0,0.5],[1,0.5]];portConstraint=eastwest;whiteSpace=wrap;html=1;" parent="g5iWzGjabt4fdFUzFIoq-36" vertex="1">
          <mxGeometry y="52" width="140" height="26" as="geometry" />
        </mxCell>
        <mxCell id="g5iWzGjabt4fdFUzFIoq-39" value="int pincode; etc.." style="text;strokeColor=none;fillColor=none;align=left;verticalAlign=top;spacingLeft=4;spacingRight=4;overflow=hidden;rotatable=0;points=[[0,0.5],[1,0.5]];portConstraint=eastwest;whiteSpace=wrap;html=1;" parent="g5iWzGjabt4fdFUzFIoq-36" vertex="1">
          <mxGeometry y="78" width="140" height="26" as="geometry" />
        </mxCell>
        <mxCell id="g5iWzGjabt4fdFUzFIoq-40" style="edgeStyle=orthogonalEdgeStyle;rounded=0;orthogonalLoop=1;jettySize=auto;html=1;exitX=0.5;exitY=0;exitDx=0;exitDy=0;entryX=0.603;entryY=1.131;entryDx=0;entryDy=0;entryPerimeter=0;" parent="WIyWlLk6GJQsqaUBKTNV-1" source="g5iWzGjabt4fdFUzFIoq-30" target="g5iWzGjabt4fdFUzFIoq-39" edge="1">
          <mxGeometry relative="1" as="geometry" />
        </mxCell>
        <mxCell id="g5iWzGjabt4fdFUzFIoq-41" value="Reservation" style="swimlane;fontStyle=0;childLayout=stackLayout;horizontal=1;startSize=26;fillColor=none;horizontalStack=0;resizeParent=1;resizeParentMax=0;resizeLast=0;collapsible=1;marginBottom=0;whiteSpace=wrap;html=1;" parent="WIyWlLk6GJQsqaUBKTNV-1" vertex="1">
          <mxGeometry x="10" y="360" width="190" height="220" as="geometry" />
        </mxCell>
        <mxCell id="g5iWzGjabt4fdFUzFIoq-42" value="int reservationId;" style="text;strokeColor=none;fillColor=none;align=left;verticalAlign=top;spacingLeft=4;spacingRight=4;overflow=hidden;rotatable=0;points=[[0,0.5],[1,0.5]];portConstraint=eastwest;whiteSpace=wrap;html=1;" parent="g5iWzGjabt4fdFUzFIoq-41" vertex="1">
          <mxGeometry y="26" width="190" height="26" as="geometry" />
        </mxCell>
        <mxCell id="g5iWzGjabt4fdFUzFIoq-43" value="User userObj;" style="text;strokeColor=none;fillColor=none;align=left;verticalAlign=top;spacingLeft=4;spacingRight=4;overflow=hidden;rotatable=0;points=[[0,0.5],[1,0.5]];portConstraint=eastwest;whiteSpace=wrap;html=1;" parent="g5iWzGjabt4fdFUzFIoq-41" vertex="1">
          <mxGeometry y="52" width="190" height="26" as="geometry" />
        </mxCell>
        <mxCell id="g5iWzGjabt4fdFUzFIoq-44" value="&lt;div&gt;Vehicle vehicleObj;&lt;/div&gt;&lt;div&gt;Date bookDate;&lt;/div&gt;" style="text;strokeColor=none;fillColor=none;align=left;verticalAlign=top;spacingLeft=4;spacingRight=4;overflow=hidden;rotatable=0;points=[[0,0.5],[1,0.5]];portConstraint=eastwest;whiteSpace=wrap;html=1;" parent="g5iWzGjabt4fdFUzFIoq-41" vertex="1">
          <mxGeometry y="78" width="190" height="32" as="geometry" />
        </mxCell>
        <mxCell id="g5iWzGjabt4fdFUzFIoq-45" value="Date bookFrom;&lt;div&gt;Date bookTill;&lt;/div&gt;&lt;div&gt;Location pickUpLocation;&lt;/div&gt;&lt;div&gt;Location dropLocation;&lt;/div&gt;&lt;div&gt;enum reservationStatus;&lt;/div&gt;&lt;div&gt;enum reservationType;&lt;/div&gt;&lt;div&gt;Location locationObj;&lt;/div&gt;" style="text;strokeColor=none;fillColor=none;align=left;verticalAlign=top;spacingLeft=4;spacingRight=4;overflow=hidden;rotatable=0;points=[[0,0.5],[1,0.5]];portConstraint=eastwest;whiteSpace=wrap;html=1;" parent="g5iWzGjabt4fdFUzFIoq-41" vertex="1">
          <mxGeometry y="110" width="190" height="110" as="geometry" />
        </mxCell>
        <mxCell id="g5iWzGjabt4fdFUzFIoq-63" style="edgeStyle=orthogonalEdgeStyle;rounded=0;orthogonalLoop=1;jettySize=auto;html=1;exitX=1;exitY=0.5;exitDx=0;exitDy=0;entryX=0.5;entryY=0;entryDx=0;entryDy=0;" parent="WIyWlLk6GJQsqaUBKTNV-1" source="g5iWzGjabt4fdFUzFIoq-33" target="g5iWzGjabt4fdFUzFIoq-41" edge="1">
          <mxGeometry relative="1" as="geometry" />
        </mxCell>
        <mxCell id="g5iWzGjabt4fdFUzFIoq-64" value="Enum ReservationStatus&lt;hr&gt;&lt;div&gt;&lt;pre lang=&quot;java&quot; class=&quot;code highlight&quot;&gt;&lt;span class=&quot;&quot;&gt;    SCHEDULED,&lt;/span&gt;&lt;br/&gt;&lt;span class=&quot;&quot;&gt;    INPROGRESS,&lt;/span&gt;&lt;br/&gt;&lt;span class=&quot;&quot;&gt;    COMPLETED,&lt;/span&gt;&lt;br/&gt;&lt;span class=&quot;&quot;&gt;    CANCELLED;&lt;/span&gt;&lt;br/&gt;&lt;/pre&gt;&lt;/div&gt;" style="whiteSpace=wrap;html=1;aspect=fixed;" parent="WIyWlLk6GJQsqaUBKTNV-1" vertex="1">
          <mxGeometry x="240" y="410" width="130" height="130" as="geometry" />
        </mxCell>
        <mxCell id="g5iWzGjabt4fdFUzFIoq-65" style="edgeStyle=orthogonalEdgeStyle;rounded=0;orthogonalLoop=1;jettySize=auto;html=1;exitX=1;exitY=0.5;exitDx=0;exitDy=0;entryX=0;entryY=0.5;entryDx=0;entryDy=0;" parent="WIyWlLk6GJQsqaUBKTNV-1" source="g5iWzGjabt4fdFUzFIoq-44" target="g5iWzGjabt4fdFUzFIoq-64" edge="1">
          <mxGeometry relative="1" as="geometry">
            <Array as="points">
              <mxPoint x="200" y="475" />
            </Array>
          </mxGeometry>
        </mxCell>
        <mxCell id="g5iWzGjabt4fdFUzFIoq-66" style="edgeStyle=orthogonalEdgeStyle;rounded=0;orthogonalLoop=1;jettySize=auto;html=1;exitX=1;exitY=0.5;exitDx=0;exitDy=0;entryX=0.071;entryY=0.971;entryDx=0;entryDy=0;entryPerimeter=0;" parent="WIyWlLk6GJQsqaUBKTNV-1" source="g5iWzGjabt4fdFUzFIoq-42" target="g5iWzGjabt4fdFUzFIoq-0" edge="1">
          <mxGeometry relative="1" as="geometry" />
        </mxCell>
        <mxCell id="g5iWzGjabt4fdFUzFIoq-67" style="edgeStyle=orthogonalEdgeStyle;rounded=0;orthogonalLoop=1;jettySize=auto;html=1;exitX=0;exitY=0.5;exitDx=0;exitDy=0;entryX=0;entryY=0.5;entryDx=0;entryDy=0;" parent="WIyWlLk6GJQsqaUBKTNV-1" source="g5iWzGjabt4fdFUzFIoq-43" target="g5iWzGjabt4fdFUzFIoq-38" edge="1">
          <mxGeometry relative="1" as="geometry">
            <Array as="points">
              <mxPoint x="-40" y="425" />
              <mxPoint x="-40" y="75" />
            </Array>
          </mxGeometry>
        </mxCell>
        <mxCell id="g5iWzGjabt4fdFUzFIoq-68" value="User" style="swimlane;fontStyle=0;childLayout=stackLayout;horizontal=1;startSize=26;fillColor=none;horizontalStack=0;resizeParent=1;resizeParentMax=0;resizeLast=0;collapsible=1;marginBottom=0;whiteSpace=wrap;html=1;" parent="WIyWlLk6GJQsqaUBKTNV-1" vertex="1">
          <mxGeometry x="430" y="440" width="170" height="104" as="geometry" />
        </mxCell>
        <mxCell id="g5iWzGjabt4fdFUzFIoq-69" value="int userId;" style="text;strokeColor=none;fillColor=none;align=left;verticalAlign=top;spacingLeft=4;spacingRight=4;overflow=hidden;rotatable=0;points=[[0,0.5],[1,0.5]];portConstraint=eastwest;whiteSpace=wrap;html=1;" parent="g5iWzGjabt4fdFUzFIoq-68" vertex="1">
          <mxGeometry y="26" width="170" height="26" as="geometry" />
        </mxCell>
        <mxCell id="g5iWzGjabt4fdFUzFIoq-70" value="String userName;" style="text;strokeColor=none;fillColor=none;align=left;verticalAlign=top;spacingLeft=4;spacingRight=4;overflow=hidden;rotatable=0;points=[[0,0.5],[1,0.5]];portConstraint=eastwest;whiteSpace=wrap;html=1;" parent="g5iWzGjabt4fdFUzFIoq-68" vertex="1">
          <mxGeometry y="52" width="170" height="26" as="geometry" />
        </mxCell>
        <mxCell id="g5iWzGjabt4fdFUzFIoq-71" value="String drivingLicence;" style="text;strokeColor=none;fillColor=none;align=left;verticalAlign=top;spacingLeft=4;spacingRight=4;overflow=hidden;rotatable=0;points=[[0,0.5],[1,0.5]];portConstraint=eastwest;whiteSpace=wrap;html=1;" parent="g5iWzGjabt4fdFUzFIoq-68" vertex="1">
          <mxGeometry y="78" width="170" height="26" as="geometry" />
        </mxCell>
        <mxCell id="g5iWzGjabt4fdFUzFIoq-72" style="edgeStyle=orthogonalEdgeStyle;rounded=0;orthogonalLoop=1;jettySize=auto;html=1;exitX=0;exitY=0.5;exitDx=0;exitDy=0;" parent="WIyWlLk6GJQsqaUBKTNV-1" source="g5iWzGjabt4fdFUzFIoq-45" target="g5iWzGjabt4fdFUzFIoq-68" edge="1">
          <mxGeometry relative="1" as="geometry">
            <Array as="points">
              <mxPoint x="-10" y="520" />
              <mxPoint x="-10" y="610" />
              <mxPoint x="515" y="610" />
            </Array>
          </mxGeometry>
        </mxCell>
        <mxCell id="g5iWzGjabt4fdFUzFIoq-77" value="VehicleRentalSystem" style="swimlane;fontStyle=0;childLayout=stackLayout;horizontal=1;startSize=26;fillColor=none;horizontalStack=0;resizeParent=1;resizeParentMax=0;resizeLast=0;collapsible=1;marginBottom=0;whiteSpace=wrap;html=1;" parent="WIyWlLk6GJQsqaUBKTNV-1" vertex="1">
          <mxGeometry x="-320" y="160" width="200" height="110" as="geometry" />
        </mxCell>
        <mxCell id="g5iWzGjabt4fdFUzFIoq-78" value="List&amp;lt;User&amp;gt; users;&lt;div&gt;List&amp;lt;Store&amp;gt; stores;&lt;br&gt;&lt;div&gt;&lt;br&gt;&lt;/div&gt;&lt;div&gt;//supports all CRUD operations on users and stores.&lt;/div&gt;&lt;/div&gt;" style="text;strokeColor=none;fillColor=none;align=left;verticalAlign=top;spacingLeft=4;spacingRight=4;overflow=hidden;rotatable=0;points=[[0,0.5],[1,0.5]];portConstraint=eastwest;whiteSpace=wrap;html=1;" parent="g5iWzGjabt4fdFUzFIoq-77" vertex="1">
          <mxGeometry y="26" width="200" height="84" as="geometry" />
        </mxCell>
        <mxCell id="g5iWzGjabt4fdFUzFIoq-82" style="edgeStyle=orthogonalEdgeStyle;rounded=0;orthogonalLoop=1;jettySize=auto;html=1;exitX=1;exitY=0.5;exitDx=0;exitDy=0;" parent="WIyWlLk6GJQsqaUBKTNV-1" source="g5iWzGjabt4fdFUzFIoq-78" edge="1">
          <mxGeometry relative="1" as="geometry">
            <mxPoint x="550" y="540" as="targetPoint" />
            <Array as="points">
              <mxPoint x="-120" y="270" />
              <mxPoint x="-220" y="270" />
              <mxPoint x="-220" y="640" />
              <mxPoint x="550" y="640" />
            </Array>
          </mxGeometry>
        </mxCell>
        <mxCell id="g5iWzGjabt4fdFUzFIoq-83" style="edgeStyle=orthogonalEdgeStyle;rounded=0;orthogonalLoop=1;jettySize=auto;html=1;exitX=1;exitY=0.5;exitDx=0;exitDy=0;entryX=0;entryY=0.5;entryDx=0;entryDy=0;" parent="WIyWlLk6GJQsqaUBKTNV-1" source="g5iWzGjabt4fdFUzFIoq-78" target="g5iWzGjabt4fdFUzFIoq-32" edge="1">
          <mxGeometry relative="1" as="geometry" />
        </mxCell>
        <mxCell id="g5iWzGjabt4fdFUzFIoq-84" value="Bill" style="swimlane;fontStyle=0;childLayout=stackLayout;horizontal=1;startSize=26;fillColor=none;horizontalStack=0;resizeParent=1;resizeParentMax=0;resizeLast=0;collapsible=1;marginBottom=0;whiteSpace=wrap;html=1;" parent="WIyWlLk6GJQsqaUBKTNV-1" vertex="1">
          <mxGeometry x="20" y="680" width="140" height="104" as="geometry" />
        </mxCell>
        <mxCell id="g5iWzGjabt4fdFUzFIoq-85" value="Reservation revObj;" style="text;strokeColor=none;fillColor=none;align=left;verticalAlign=top;spacingLeft=4;spacingRight=4;overflow=hidden;rotatable=0;points=[[0,0.5],[1,0.5]];portConstraint=eastwest;whiteSpace=wrap;html=1;" parent="g5iWzGjabt4fdFUzFIoq-84" vertex="1">
          <mxGeometry y="26" width="140" height="26" as="geometry" />
        </mxCell>
        <mxCell id="g5iWzGjabt4fdFUzFIoq-86" value="boolean isPaid;" style="text;strokeColor=none;fillColor=none;align=left;verticalAlign=top;spacingLeft=4;spacingRight=4;overflow=hidden;rotatable=0;points=[[0,0.5],[1,0.5]];portConstraint=eastwest;whiteSpace=wrap;html=1;" parent="g5iWzGjabt4fdFUzFIoq-84" vertex="1">
          <mxGeometry y="52" width="140" height="26" as="geometry" />
        </mxCell>
        <mxCell id="g5iWzGjabt4fdFUzFIoq-87" value="double amount;" style="text;strokeColor=none;fillColor=none;align=left;verticalAlign=top;spacingLeft=4;spacingRight=4;overflow=hidden;rotatable=0;points=[[0,0.5],[1,0.5]];portConstraint=eastwest;whiteSpace=wrap;html=1;" parent="g5iWzGjabt4fdFUzFIoq-84" vertex="1">
          <mxGeometry y="78" width="140" height="26" as="geometry" />
        </mxCell>
        <mxCell id="g5iWzGjabt4fdFUzFIoq-88" style="edgeStyle=orthogonalEdgeStyle;rounded=0;orthogonalLoop=1;jettySize=auto;html=1;exitX=0.5;exitY=0;exitDx=0;exitDy=0;entryX=0.474;entryY=1;entryDx=0;entryDy=0;entryPerimeter=0;" parent="WIyWlLk6GJQsqaUBKTNV-1" source="g5iWzGjabt4fdFUzFIoq-84" target="g5iWzGjabt4fdFUzFIoq-45" edge="1">
          <mxGeometry relative="1" as="geometry" />
        </mxCell>
        <mxCell id="g5iWzGjabt4fdFUzFIoq-93" value="Payment" style="swimlane;fontStyle=1;align=center;verticalAlign=top;childLayout=stackLayout;horizontal=1;startSize=26;horizontalStack=0;resizeParent=1;resizeParentMax=0;resizeLast=0;collapsible=1;marginBottom=0;whiteSpace=wrap;html=1;" parent="WIyWlLk6GJQsqaUBKTNV-1" vertex="1">
          <mxGeometry x="254" y="680" width="160" height="86" as="geometry" />
        </mxCell>
        <mxCell id="g5iWzGjabt4fdFUzFIoq-94" value="Bill billObj;" style="text;strokeColor=none;fillColor=none;align=left;verticalAlign=top;spacingLeft=4;spacingRight=4;overflow=hidden;rotatable=0;points=[[0,0.5],[1,0.5]];portConstraint=eastwest;whiteSpace=wrap;html=1;" parent="g5iWzGjabt4fdFUzFIoq-93" vertex="1">
          <mxGeometry y="26" width="160" height="26" as="geometry" />
        </mxCell>
        <mxCell id="g5iWzGjabt4fdFUzFIoq-95" value="" style="line;strokeWidth=1;fillColor=none;align=left;verticalAlign=middle;spacingTop=-1;spacingLeft=3;spacingRight=3;rotatable=0;labelPosition=right;points=[];portConstraint=eastwest;strokeColor=inherit;" parent="g5iWzGjabt4fdFUzFIoq-93" vertex="1">
          <mxGeometry y="52" width="160" height="8" as="geometry" />
        </mxCell>
        <mxCell id="g5iWzGjabt4fdFUzFIoq-96" value="payBill();" style="text;strokeColor=none;fillColor=none;align=left;verticalAlign=top;spacingLeft=4;spacingRight=4;overflow=hidden;rotatable=0;points=[[0,0.5],[1,0.5]];portConstraint=eastwest;whiteSpace=wrap;html=1;" parent="g5iWzGjabt4fdFUzFIoq-93" vertex="1">
          <mxGeometry y="60" width="160" height="26" as="geometry" />
        </mxCell>
        <mxCell id="g5iWzGjabt4fdFUzFIoq-97" style="edgeStyle=orthogonalEdgeStyle;rounded=0;orthogonalLoop=1;jettySize=auto;html=1;exitX=0;exitY=0.5;exitDx=0;exitDy=0;entryX=1;entryY=0.808;entryDx=0;entryDy=0;entryPerimeter=0;" parent="WIyWlLk6GJQsqaUBKTNV-1" source="g5iWzGjabt4fdFUzFIoq-96" target="g5iWzGjabt4fdFUzFIoq-86" edge="1">
          <mxGeometry relative="1" as="geometry" />
        </mxCell>
        <mxCell id="g5iWzGjabt4fdFUzFIoq-98" value="CardBillPayment" style="html=1;whiteSpace=wrap;" parent="WIyWlLk6GJQsqaUBKTNV-1" vertex="1">
          <mxGeometry x="240" y="830" width="110" height="50" as="geometry" />
        </mxCell>
        <mxCell id="g5iWzGjabt4fdFUzFIoq-99" value="OnlineBillPayment" style="html=1;whiteSpace=wrap;" parent="WIyWlLk6GJQsqaUBKTNV-1" vertex="1">
          <mxGeometry x="380" y="830" width="110" height="50" as="geometry" />
        </mxCell>
        <mxCell id="g5iWzGjabt4fdFUzFIoq-100" value="" style="endArrow=block;dashed=1;endFill=0;endSize=12;html=1;rounded=0;entryX=0.291;entryY=1.162;entryDx=0;entryDy=0;entryPerimeter=0;exitX=0.5;exitY=0;exitDx=0;exitDy=0;" parent="WIyWlLk6GJQsqaUBKTNV-1" source="g5iWzGjabt4fdFUzFIoq-98" target="g5iWzGjabt4fdFUzFIoq-96" edge="1">
          <mxGeometry width="160" relative="1" as="geometry">
            <mxPoint x="290" y="820" as="sourcePoint" />
            <mxPoint x="370" y="730" as="targetPoint" />
          </mxGeometry>
        </mxCell>
        <mxCell id="g5iWzGjabt4fdFUzFIoq-102" value="" style="endArrow=block;dashed=1;endFill=0;endSize=12;html=1;rounded=0;entryX=0.846;entryY=1.069;entryDx=0;entryDy=0;entryPerimeter=0;exitX=0.5;exitY=0;exitDx=0;exitDy=0;" parent="WIyWlLk6GJQsqaUBKTNV-1" source="g5iWzGjabt4fdFUzFIoq-99" target="g5iWzGjabt4fdFUzFIoq-96" edge="1">
          <mxGeometry width="160" relative="1" as="geometry">
            <mxPoint x="210" y="730" as="sourcePoint" />
            <mxPoint x="370" y="730" as="targetPoint" />
          </mxGeometry>
        </mxCell>
        <mxCell id="lWWdWxgXv5kAz43cupQ_-0" value="Enum&amp;nbsp;&lt;div&gt;ReservationType&lt;/div&gt;&lt;div&gt;&lt;hr&gt;&lt;div&gt;&lt;pre lang=&quot;java&quot; class=&quot;code highlight&quot;&gt;HOURLY,&lt;/pre&gt;&lt;pre lang=&quot;java&quot; class=&quot;code highlight&quot;&gt;DAILY;&lt;/pre&gt;&lt;/div&gt;&lt;/div&gt;" style="whiteSpace=wrap;html=1;aspect=fixed;" vertex="1" parent="WIyWlLk6GJQsqaUBKTNV-1">
          <mxGeometry x="-180" y="390" width="130" height="130" as="geometry" />
        </mxCell>
        <mxCell id="lWWdWxgXv5kAz43cupQ_-1" style="edgeStyle=orthogonalEdgeStyle;rounded=0;orthogonalLoop=1;jettySize=auto;html=1;exitX=0;exitY=0.5;exitDx=0;exitDy=0;entryX=1;entryY=0.5;entryDx=0;entryDy=0;" edge="1" parent="WIyWlLk6GJQsqaUBKTNV-1" source="g5iWzGjabt4fdFUzFIoq-44" target="lWWdWxgXv5kAz43cupQ_-0">
          <mxGeometry relative="1" as="geometry" />
        </mxCell>
      </root>
    </mxGraphModel>
  </diagram>
</mxfile>
